# xmcd
#
# Track frame offsets: 
#        187
#        18319
#        38597
#        61362
#        81529
#        95174
#        111784
#        127604
#        139322
#        159947
#        180514
#        195769
#        216547
#        236834
#
# Disc length: 3425 seconds
#
# Revision: 6
# Processed by: cddbd v1.5.2PL0 Copyright (c) Steve Scherf et al.
# Submitted via: ExactAudioCopy v1.3
#
DISCID=ba0d5f0e
DTITLE=Bryan Adams - MTV Unplugged
DYEAR=1997
DGENRE=Rock
TTITLE0=Summer Of '69
TTITLE1=Back To You
TTITLE2=Cuts Like A Knife
TTITLE3=I'm Ready
TTITLE4=Fits Ya Good
TTITLE5=When You Love Someone
TTITLE6=18 Til Die
TTITLE7=I Think About You
TTITLE8=If Ya Wanna Be Bad-Ya Gotta Be Good - Let's Make A Night To Re
TTITLE8=member
TTITLE9=The Only Thing That Looks Good On Me Is You
TTITLE10=A Little Love
TTITLE11=Can't Stop This Thing We Started - It Ain't A Party... If You
TTITLE11=Can't Come 'Round
TTITLE12=Heaven
TTITLE13=I'll Always Be Right There
EXTD=YEAR: 1997
EXTT0=
EXTT1=
EXTT2=
EXTT3=
EXTT4=
EXTT5=
EXTT6=
EXTT7=
EXTT8=
EXTT9=
EXTT10=
EXTT11=
EXTT12=
EXTT13=
PLAYORDER=
